<?xml version="1.0" standalone="no"?>
<!DOCTYPE svg PUBLIC "-//W3C//DTD SVG 20010904//EN"
 "http://www.w3.org/TR/2001/REC-SVG-20010904/DTD/svg10.dtd">
<svg version="1.0" xmlns="http://www.w3.org/2000/svg"
 width="463.000000pt" height="463.000000pt" viewBox="0 0 463.000000 463.000000"
 preserveAspectRatio="xMidYMid meet">
<metadata>
Created by potrace 1.11, written by Peter Selinger 2001-2013
</metadata>
<g transform="translate(0.000000,463.000000) scale(0.100000,-0.100000)"
fill="#000000" stroke="none">
<path d="M0 2315 l0 -2255 2315 0 2315 0 0 2255 0 2255 -2315 0 -2315 0 0
-2255z m2570 1140 l196 -650 649 -5 650 -5 -523 -409 c-459 -358 -523 -412
-518 -431 6 -22 5 -22 -46 -8 -36 9 -121 13 -275 13 l-223 0 -2 -290 -3 -289
-50 39 c-27 22 -55 39 -62 38 -10 -3 -274 -207 -885 -686 -135 -106 -165 -126
-158 -104 57 170 390 1297 387 1306 -3 6 -238 194 -522 416 l-518 405 649 3
649 2 200 665 c110 366 202 660 204 653 3 -7 93 -305 201 -663z m386 -1726
c18 -19 26 -37 26 -62 0 -78 -45 -109 -174 -115 l-88 -4 0 107 0 107 105 -4
c97 -3 106 -5 131 -29z m337 -666 c68 -227 121 -413 118 -412 -3 0 -159 121
-346 268 l-340 267 -3 92 -3 92 38 0 38 0 100 -185 100 -185 138 0 c75 0 137
2 137 5 0 2 -54 93 -120 201 -66 108 -120 198 -120 200 0 2 19 12 43 22 23 11
51 29 61 41 11 12 23 18 27 14 4 -5 63 -194 132 -420z"/>
</g>
</svg>
